<svg id="Layer_1" data-name="Layer 1" xmlns="http://www.w3.org/2000/svg" viewBox="0 0 500 500"><defs><style>.cls-1,.cls-2{fill:#fff;}.cls-2{stroke:#000;stroke-miterlimit:10;stroke-width:3px;}</style></defs><title>a-a-black</title><circle cx="250" cy="250" r="239.83"/><path class="cls-1" d="M90.31,382.08v-34c0-55.05,36.26-99.84,80.84-99.84S252,293.06,252,348.11v34Z"/><path d="M171.15,249.77c43.75,0,79.34,44.12,79.34,98.34v32.47H91.81V348.11c0-54.23,35.59-98.34,79.34-98.34m0-3c-45.47,0-82.34,45.37-82.34,101.34v35.47H253.49V348.11c0-56-36.86-101.34-82.34-101.34Z"/><path class="cls-1" d="M170.16,267.09c-36,0-65.34-34.41-65.34-76.7s29.31-76.7,65.34-76.7,65.34,34.41,65.34,76.7S206.19,267.09,170.16,267.09Z"/><path d="M170.16,115.2c35.2,0,63.84,33.73,63.84,75.2s-28.64,75.2-63.84,75.2-63.84-33.73-63.84-75.2,28.64-75.2,63.84-75.2m0-3c-36.92,0-66.84,35-66.84,78.2s29.93,78.2,66.84,78.2,66.84-35,66.84-78.2-29.93-78.2-66.84-78.2Z"/><path class="cls-2" d="M236,204.23c10.06-35.8,3.12-70.68-19.29-75.12,0,0,1.66-.45,2.64-4.44C192.94,68.48,111,115.87,118,137.92c-24.85-.07-13.63,66.31-13.63,66.31l8.16-8.57s13.18-38.45,11.87-47.33c29,4.44,80.42-4.44,87-10.35,4,25.14,18.46,59.16,18.46,59.16Z"/><path class="cls-2" d="M338.35,285.66s-82.53,8.39-75.54-5.6,8.39-65.75,7-75.54,0-32.17,8.39-44.76,77.85-41.78,86.73-19.58c19.58,0,42,35,39.17,60.15s8.35,66.37,12.59,74.14C425.08,289.85,338.35,285.66,338.35,285.66Z"/><path class="cls-1" d="M263.85,382.08V351.76c0-49.3,32.46-89.41,72.36-89.41s72.36,40.11,72.36,89.41v30.32Z"/><path d="M336.22,263.85c39.07,0,70.86,39.44,70.86,87.91v28.82H265.35V351.76c0-48.47,31.79-87.91,70.86-87.91m0-3c-40.79,0-73.86,40.7-73.86,90.91v31.82H410.08V351.76c0-50.21-33.07-90.91-73.86-90.91Z"/><path class="cls-1" d="M335.33,278.93c-32.24,0-58.46-30.8-58.46-68.65s26.23-68.65,58.46-68.65,58.46,30.79,58.46,68.65S367.56,278.93,335.33,278.93Z"/><path d="M335.33,143.13c31.41,0,57,30.12,57,67.15s-25.55,67.15-57,67.15-57-30.12-57-67.15,25.55-67.15,57-67.15m0-3c-33.12,0-60,31.41-60,70.15s26.85,70.15,60,70.15,60-31.41,60-70.15-26.85-70.15-60-70.15Z"/><path class="cls-2" d="M405.32,230.08c-9.08-7.11-42.36-35.32-46-70.32-20.13,21.57-47.56,30.78-67.15,33.57,3.4,32.9-15.74,47.87-23.1,52.33,1.4-17.57,1.48-35.74.71-41.14-1.4-9.79-1.4-29.38,8.39-44.76C290.08,141.1,356,118,364.93,140.17c19.58,0,42,35,39.17,60.15C403.14,209,403.83,219.62,405.32,230.08Z"/></svg>