<svg id="Layer_1" data-name="Layer 1" xmlns="http://www.w3.org/2000/svg" viewBox="0 0 500 500"><defs><style>.cls-1{fill:#80ccd3;}.cls-2{fill:#f0d0b4;}.cls-3{fill:#42210b;}.cls-4{fill:#ece077;}.cls-5{fill:#ece09c;}</style></defs><title>a-a-color-nobg</title><path class="cls-1" d="M171.15,246.77c-45.47,0-82.34,45.37-82.34,101.34v35.47H253.49V348.11C253.49,292.14,216.62,246.77,171.15,246.77Z"/><ellipse class="cls-2" cx="170.16" cy="190.39" rx="66.84" ry="78.2"/><path class="cls-3" d="M236,204.23c10.06-35.8,3.12-70.68-19.29-75.12,0,0,1.32,1.48,2.64-4.44C192.94,68.48,111,115.87,118,137.92c-24.85-.07-13.63,66.31-13.63,66.31l8.16-8.57s13.18-38.45,11.87-47.33c29,4.44,80.42-4.44,87-10.35,4,25.14,18.46,59.16,18.46,59.16Z"/><path class="cls-4" d="M338.35,285.66s-82.53,8.39-75.54-5.6,8.39-65.75,7-75.54,0-32.17,8.39-44.76,77.85-41.78,86.73-19.58c19.58,0,42,35,39.17,60.15s8.35,66.37,12.59,74.14C425.08,289.85,338.35,285.66,338.35,285.66Z"/><path class="cls-1" d="M336.22,260.85c-40.79,0-73.86,40.7-73.86,90.91v31.82H410.08V351.76C410.08,301.55,377,260.85,336.22,260.85Z"/><ellipse class="cls-2" cx="335.33" cy="210.28" rx="59.96" ry="70.15"/><path class="cls-5" d="M405.32,230.08c-9.08-7.11-42.36-35.32-46-70.32-20.13,21.57-47.56,30.78-67.15,33.57,3.4,32.9-15.74,47.87-23.1,52.33,1.4-17.57,1.48-35.74.71-41.14-1.4-9.79-1.4-29.38,8.39-44.76C290.08,141.1,356,118,364.93,140.17c19.58,0,42,35,39.17,60.15C403.14,209,403.83,219.62,405.32,230.08Z"/></svg>