<svg xmlns="http://www.w3.org/2000/svg" viewBox="0 0 500 500"><defs><style>.cls-1{fill:#80ccd3;}.cls-2{fill:#019aa8;}.cls-3{fill:#bfe6e9;}.cls-4{fill:#f0d0b4;}.cls-5{fill:#42210b;}.cls-6{fill:#ece077;}.cls-7{fill:#ece09c;}</style></defs><title>pictures-aa</title><g id="Layer_3" data-name="Layer 3"><circle class="cls-1" cx="250" cy="250" r="239.83"/><rect class="cls-2" x="103.14" y="89.4" width="293.72" height="321.2"/><rect class="cls-3" x="117.3" y="97.46" width="265.39" height="271.49" transform="translate(483.21 -16.79) rotate(90)"/><path class="cls-1" d="M189.33,264.55c-33.69,0-61,33.61-61,75.08v26.28h122V339.63C250.34,298.16,223,264.55,189.33,264.55Z"/><ellipse class="cls-4" cx="188.6" cy="222.78" rx="49.52" ry="57.93"/><path class="cls-5" d="M237.35,233c7.45-26.52,2.31-52.36-14.29-55.65,0,0,1,1.1,2-3.29-19.53-41.63-80.24-6.52-75.06,9.81-18.41-.05-10.1,49.13-10.1,49.13l6-6.35s9.77-28.49,8.79-35.06c21.49,3.29,59.58-3.29,64.46-7.67,2.93,18.63,13.67,43.83,13.67,43.83Z"/><path class="cls-6" d="M313.21,293.36s-61.14,6.22-56-4.15,6.22-48.71,5.18-56,0-23.84,6.22-33.16,57.68-31,64.25-14.51c14.51,0,31.09,25.91,29,44.56s6.19,49.17,9.33,54.93C377.46,296.47,313.21,293.36,313.21,293.36Z"/><path class="cls-1" d="M311.62,275c-30.22,0-54.72,30.15-54.72,67.35v23.57H366.35V342.33C366.35,305.14,341.85,275,311.62,275Z"/><ellipse class="cls-4" cx="310.97" cy="237.52" rx="44.42" ry="51.97"/><path class="cls-7" d="M362.82,252.19c-6.73-5.26-31.38-26.17-34.06-52.1-14.91,16-35.24,22.8-49.75,24.87,2.52,24.38-11.66,35.46-17.11,38.77,1-13,1.1-26.48.53-30.48-1-7.25-1-21.76,6.22-33.16,8.8-13.82,57.67-31,64.25-14.51,14.51,0,31.09,25.91,29,44.56C361.2,236.58,361.72,244.43,362.82,252.19Z"/></g></svg>