<svg xmlns="http://www.w3.org/2000/svg" viewBox="0 0 500 500"><defs><style>.cls-1{fill:#80ccd3;}.cls-2{fill:#019aa8;}.cls-3{fill:#b3b3b3;}.cls-4{fill:#e6e6e6;}.cls-5{fill:#ccc;}</style></defs><title>stories-aa</title><g id="Layer_4" data-name="Layer 4"><circle class="cls-1" cx="250" cy="250" r="239.83"/><path class="cls-2" d="M58,153.3V357.57h149.8c23.3,0,12.28,42.18,42.18,42.18h0c29.9,0,18.88-42.18,42.18-42.18H442V153.3H267.17L250,165.5l-20-12.2Z"/><path class="cls-3" d="M285.61,138.84A35.61,35.61,0,0,0,250,174.45a35.61,35.61,0,0,0-35.61-35.61H74.81V341.36H214.39c19.67,0,35.61,23.36,35.61,43h0c0-19.67,15.94-43,35.61-43H425.19V138.84Z"/><path class="cls-4" d="M285.61,130.27c-19.67,0-35.61,10.42-35.61,30.09,0-19.67-15.94-30.09-35.61-30.09H74.81V332.79H214.39c19.67,0,35.61,1.21,35.61,35.61h0c0-34.4,15.94-35.61,35.61-35.61H425.19V130.27Z"/><rect class="cls-5" x="284.27" y="150.66" width="123.58" height="12.91"/><path class="cls-4" d="M407.35,151.16v11.91H284.77V151.16H407.35m1-1H283.77v13.91H408.35V150.16Z"/><rect class="cls-5" x="284.27" y="200.67" width="123.58" height="12.91"/><path class="cls-4" d="M407.35,201.17v11.91H284.77V201.17H407.35m1-1H283.77v13.91H408.35V200.17Z"/><rect class="cls-5" x="284.27" y="225.67" width="123.58" height="12.91"/><path class="cls-4" d="M407.35,226.17v11.91H284.77V226.17H407.35m1-1H283.77v13.91H408.35V225.17Z"/><rect class="cls-5" x="284.27" y="250.67" width="123.58" height="12.91"/><path class="cls-4" d="M407.35,251.17v11.91H284.77V251.17H407.35m1-1H283.77v13.91H408.35V250.17Z"/><rect class="cls-5" x="284.27" y="275.68" width="123.58" height="12.91"/><path class="cls-4" d="M407.35,276.18v11.91H284.77V276.18H407.35m1-1H283.77v13.91H408.35V275.18Z"/><rect class="cls-5" x="284.27" y="300.68" width="123.58" height="12.91"/><path class="cls-4" d="M407.35,301.18v11.91H284.77V301.18H407.35m1-1H283.77v13.91H408.35V300.18Z"/><rect class="cls-5" x="284.27" y="175.66" width="123.58" height="12.91"/><path class="cls-4" d="M407.35,176.16v11.91H284.77V176.16H407.35m1-1H283.77v13.91H408.35V175.16Z"/><rect class="cls-5" x="135.94" y="150.66" width="79.79" height="12.91"/><path class="cls-4" d="M215.23,151.16v11.91h-78.8V151.16h78.8m1-1h-80.8v13.91h80.8V150.16Z"/><rect class="cls-5" x="92.15" y="200.67" width="123.58" height="12.91"/><path class="cls-4" d="M215.23,201.17v11.91H92.65V201.17H215.23m1-1H91.65v13.91H216.23V200.17Z"/><rect class="cls-5" x="92.15" y="225.67" width="123.58" height="12.91"/><path class="cls-4" d="M215.23,226.17v11.91H92.65V226.17H215.23m1-1H91.65v13.91H216.23V225.17Z"/><rect class="cls-5" x="92.15" y="250.67" width="123.58" height="12.91"/><path class="cls-4" d="M215.23,251.17v11.91H92.65V251.17H215.23m1-1H91.65v13.91H216.23V250.17Z"/><rect class="cls-5" x="92.15" y="275.68" width="123.58" height="12.91"/><path class="cls-4" d="M215.23,276.18v11.91H92.65V276.18H215.23m1-1H91.65v13.91H216.23V275.18Z"/><rect class="cls-5" x="92.15" y="300.68" width="123.58" height="12.91"/><path class="cls-4" d="M215.23,301.18v11.91H92.65V301.18H215.23m1-1H91.65v13.91H216.23V300.18Z"/><rect class="cls-5" x="135.94" y="175.66" width="79.79" height="12.91"/><path class="cls-4" d="M215.23,176.16v11.91h-78.8V176.16h78.8m1-1h-80.8v13.91h80.8V175.16Z"/><rect class="cls-5" x="92.15" y="150.66" width="31.69" height="37.91"/><path class="cls-4" d="M123.34,151.16v36.91H92.65V151.16h30.69m1-1H91.65v38.91h32.69V150.16Z"/></g></svg>